#N canvas 779 117 959 844 10;
#X declare -lib mrpeach;
#X obj 567 -3998 print ERROR;
#N canvas 712 205 905 623 in&out 0;
#X obj 114 116 list-extend;
#X obj 191 77 sel 10;
#X msg 191 185 54 49 50 32 48 32;
#X obj 190 157 prepend set;
#X obj 193 236 gate;
#X msg 126 209 0;
#X msg 160 207 1;
#X obj 116 30 inlet;
#X obj 198 268 outlet;
#X obj 87 80 route 10;
#X connect 0 0 3 0;
#X connect 1 0 0 1;
#X connect 1 0 6 0;
#X connect 1 0 2 0;
#X connect 1 1 5 0;
#X connect 2 0 4 1;
#X connect 3 0 2 0;
#X connect 4 0 8 0;
#X connect 5 0 4 0;
#X connect 6 0 4 0;
#X connect 7 0 1 0;
#X connect 7 0 9 0;
#X connect 9 1 0 0;
#X restore 456 -4068 pd in&out;
#X obj 431 -3952 unpack 0 0 0 0 0 0 0;
#X floatatom 429 -3916 5 0 0 0 - - -;
#X msg 422 -4152 devices;
#X text 554 -4109 < change the numer 2 to the comport used by Arduino
;
#X text 485 -4152 < Click me to see what is connected to serial port
;
#X text 530 -4067 < click me to see what's in the sub patch;
#X text 589 -4030 < don't worry about this one!;
#X text 43 -4184 NOTE: You need to have the file convert.ascii2pd.pd
in the same folder as this patch;
#X text 567 -3950 < unpack each sensor vaule (or switches connected)
;
#X text 555 -4097 < change the numer 9600 to the boudrate used by Arduino
;
#X obj 456 -4103 comport 1 9600;
#X obj 148 -3860 import mrpeach;
#X obj 147 -3891 bng 15 250 50 0 empty empty empty 17 7 0 10 -262144
-1 -1;
#X floatatom 274 -3831 5 0 100 0 - - -;
#X obj 278 -3703 sendOSC;
#X msg 277 -3793 send /resistance/ \$1;
#X obj 118 -3928 loadbang;
#X msg 535 -4207 open \$1;
#X msg 601 -4207 close;
#X msg 542 -4255 1;
#X msg 493 -4256 0;
#X obj 456 -4031 convert.ascii2pd CR;
#X obj 435 -3760 tabwrite raw;
#X obj 482 -3885 counter 0 0 127;
#X floatatom 514 -3812 5 0 0 0 - - -;
#X msg 115 -3793 connect 192.168.1.3 1200;
#X text 44 -4221 ADapted from http://hacklab.recyclism.com/workshops/arduino-to-pd-serial/
;
#N canvas 0 22 450 278 (subpatch) 0;
#X array raw 128 float 3;
#A 0 415 425 437 443 444 439 433 427 424 422 423 426 429 432 442 454
475 493 518 534 554 574 601 616 628 637 645 646 644 626 599 546 505
492 471 467 468 479 514 547 570 579 577 554 505 448 423 408 404 414
433 475 513 531 529 509 463 411 380 359 355 361 395 446 502 535 541
535 507 456 416 389 372 366 367 385 442 504 553 563 565 559 526 474
429 399 381 375 390 429 469 491 500 501 494 461 406 346 318 315 323
354 390 420 428 422 409 402 400 409 428 449 458 450 430 405 385 379
390 409 433 444 447 445 433 420 416 413;
#X coords 0 0 127 1023 200 140 1 0 0;
#X restore 422 -3704 graph;
#X connect 1 0 23 0;
#X connect 2 0 3 0;
#X connect 3 0 15 0;
#X connect 3 0 24 0;
#X connect 3 0 25 0;
#X connect 4 0 12 0;
#X connect 12 0 1 0;
#X connect 14 0 13 0;
#X connect 15 0 17 0;
#X connect 17 0 16 0;
#X connect 18 0 14 0;
#X connect 18 0 27 0;
#X connect 19 0 12 0;
#X connect 20 0 12 0;
#X connect 21 0 19 0;
#X connect 22 0 19 0;
#X connect 23 0 2 0;
#X connect 23 2 0 0;
#X connect 25 0 24 1;
#X connect 25 0 26 0;
#X connect 27 0 16 0;
