#N canvas 276 23 1087 793 10;
#X declare -lib mrpeach;
#N canvas 381 23 985 774 turingInterface 1;
#X floatatom 459 104 5 0 0 0 - - -;
#X msg 465 141 open \$1;
#X obj 335 265 print right;
#X obj 515 41 loadbang;
#X msg 534 104 1;
#X floatatom -329 104 5 0 0 0 - - -;
#X floatatom 68 104 5 0 0 0 - - -;
#X floatatom 171 104 5 0 0 0 - - -;
#X obj 126 312 == 253;
#X obj 126 372 outlet;
#X obj -328 41 inlet;
#X obj 68 41 inlet;
#X obj 169 41 inlet;
#X obj 318 41 inlet;
#X obj 437 41 inlet;
#X obj 325 104 bng 15 250 50 0 empty empty empty 17 7 0 10 -262144
-1 -1;
#X obj 126 342 select 0 1;
#X obj 272 312 < 128;
#X obj 252 364 outlet;
#X obj 252 334 spigot;
#X msg 569 141 close;
#X obj -205 39 inlet;
#X obj -16 48 inlet;
#X obj 611 41 inlet;
#X floatatom 658 104 5 0 0 0 - - -;
#X obj 666 41 inlet;
#X obj 127 239 comport 1 9600;
#X msg 325 141 print readTape:0x;
#X msg -330 141 print moveHead:\$1x;
#X msg 28 141 print writeTape:\$1x;
#X msg 170 141 print setHeadState:\$1x;
#X obj -205 141 sprintf print writeTapeAt:%i:%ix;
#X msg 637 141 print \$1x;
#X obj 2 364 print fromSerial:;
#X obj 736 42 inlet;
#X obj -302 37;
#X obj 589 493 makesymbol;
#X obj 589 364 makefilename;
#X msg 340 440 list 11 23 1 9 19 x;
#X obj 378 532 sprintf %s%s;
#X obj 743 101 tosymbol;
#X msg 724 143 print lightsToggle:\$1x;
#X obj 1215 34 inlet;
#X obj 1222 93 tosymbol;
#X msg 1203 136 print lightsSetPattern:\$1x;
#X obj 895 38 inlet;
#X obj 902 97 tosymbol;
#X obj 1028 37 inlet;
#X obj 1035 96 tosymbol;
#X msg 883 139 print lightsOn:\$1x;
#X msg 1034 141 print lightsOff:\$1x;
#X connect 0 0 1 0;
#X connect 1 0 26 0;
#X connect 3 0 4 0;
#X connect 4 0 1 0;
#X connect 5 0 28 0;
#X connect 6 0 29 0;
#X connect 7 0 30 0;
#X connect 8 0 16 0;
#X connect 10 0 5 0;
#X connect 11 0 6 0;
#X connect 12 0 7 0;
#X connect 13 0 15 0;
#X connect 14 0 0 0;
#X connect 15 0 27 0;
#X connect 16 1 9 0;
#X connect 17 0 19 1;
#X connect 19 0 18 0;
#X connect 20 0 26 0;
#X connect 21 0 31 0;
#X connect 22 0 31 1;
#X connect 23 0 20 0;
#X connect 24 0 32 0;
#X connect 25 0 24 0;
#X connect 26 0 8 0;
#X connect 26 0 17 0;
#X connect 26 0 19 0;
#X connect 26 0 33 0;
#X connect 26 1 2 0;
#X connect 27 0 26 0;
#X connect 28 0 26 0;
#X connect 29 0 26 0;
#X connect 30 0 26 0;
#X connect 31 0 26 0;
#X connect 32 0 26 0;
#X connect 34 0 40 0;
#X connect 40 0 41 0;
#X connect 41 0 26 0;
#X connect 42 0 43 0;
#X connect 43 0 44 0;
#X connect 44 0 26 0;
#X connect 45 0 46 0;
#X connect 46 0 49 0;
#X connect 47 0 48 0;
#X connect 48 0 50 0;
#X connect 49 0 26 0;
#X connect 50 0 26 0;
#X restore 227 505 pd turingInterface;
#X floatatom -40 283 5 0 31 0 - - -;
#X floatatom 207 283 5 0 127 0 - - -;
#X floatatom 281 283 5 0 127 0 - - -;
#X floatatom 413 283 5 0 0 0 - - -;
#X obj 359 283 bng 15 250 50 0 empty empty empty 17 7 0 10 -262144
-1 -1;
#X text 181 264 writeToTape;
#X text 344 267 readTape;
#X text 411 267 choose serial device;
#X obj 227 542 bng 15 250 50 0 empty empty empty 17 7 0 10 -262144
-1 -1;
#X floatatom 330 541 5 0 0 0 - - -;
#X text 225 566 head Arrived;
#X text 328 568 tape value;
#X text -45 256 moveHead;
#X text 257 265 setHeadState;
#X floatatom 13 283 5 0 0 0 - - -;
#X floatatom 115 283 5 0 0 0 - - -;
#X text 13 210 writeToTapeAt;
#X text 18 264 column;
#X text 124 266 value;
#X obj 547 283 bng 15 250 50 0 empty empty empty 17 7 0 10 -262144
-1 -1;
#X text 540 267 close port;
#X msg 413 249 1;
#X obj 413 217 bng 15 250 50 0 empty empty empty 17 7 0 10 -262144
-1 -1;
#X floatatom 629 283 5 0 0 0 - - -;
#X obj 114 233 r tapeValue;
#X obj 13 234 r columnIndex;
#X text 623 268 send a number;
#X obj 694 76 bng 15 250 50 0 empty empty empty 17 7 0 10 -262144 -1
-1;
#N canvas 922 23 450 300 setRandomMatrix 0;
#X floatatom -6883 190 5 0 0 0 - - -;
#X obj -6735 209 random 127;
#X obj -6982 175 delay 2;
#X obj -6965 200 any;
#X obj -6735 189 bng 15 250 50 0 empty empty empty 17 7 0 10 -262144
-1 -1;
#X obj -6734 234 s tapeValue;
#X obj -6963 234 s columnIndex;
#X obj -6875 64 f;
#X obj -6839 63 + 1;
#X obj -6875 -2 tgl 15 0 empty empty empty 17 7 0 10 -262144 -1 -1
0 1;
#X floatatom -6873 122 5 0 0 0 - - -;
#X obj -6774 180 bng 15 250 50 0 empty empty empty 17 7 0 10 -262144
-1 -1;
#X obj -6875 95 % 32;
#X obj -6871 162 sel 31;
#X msg -6876 -30 1;
#X obj -6882 -54 inlet;
#X obj -6784 -49 inlet;
#X obj -6876 32 metro 50;
#X connect 0 0 2 0;
#X connect 0 0 3 1;
#X connect 1 0 5 0;
#X connect 2 0 3 0;
#X connect 3 0 6 0;
#X connect 4 0 1 0;
#X connect 7 0 8 0;
#X connect 7 0 12 0;
#X connect 8 0 7 1;
#X connect 9 0 17 0;
#X connect 10 0 13 0;
#X connect 10 0 0 0;
#X connect 10 0 4 0;
#X connect 11 0 9 0;
#X connect 12 0 10 0;
#X connect 13 0 11 0;
#X connect 14 0 9 0;
#X connect 15 0 14 0;
#X connect 16 0 17 1;
#X connect 17 0 7 0;
#X restore 694 126 pd setRandomMatrix;
#X floatatom 800 73 5 0 0 0 - - -;
#X text 804 48 speeds faster than 30ms are unreliable;
#X text 270 48 outlet1 is resistance value1 \, outlet2 is resistance
value2;
#N canvas 910 525 450 300 receiveWaterResistance 0;
#X obj 113 169 outlet;
#X obj 242 171 outlet;
#X obj 262 17 import mrpeach;
#X obj 262 -19 bng 15 250 50 0 empty empty empty 17 7 0 10 -262144
-1 -1;
#X obj 119 28 unpackOSC;
#X floatatom 115 122 5 0 0 0 - - -;
#X obj 119 -29 udpreceive 1200;
#X obj 115 65 route /resistance/;
#X obj 262 -51 loadbang;
#X obj 239 66 route /resistance2/;
#X connect 3 0 2 0;
#X connect 4 0 7 0;
#X connect 4 0 9 0;
#X connect 5 0 0 0;
#X connect 6 0 4 0;
#X connect 7 0 5 0;
#X connect 8 0 3 0;
#X connect 9 0 1 0;
#X restore 270 70 pd receiveWaterResistance;
#X floatatom 270 115 5 0 0 0 - - -;
#X text 734 256 lightsToggle;
#X msg 737 283 list 0 31 2 4 5 6;
#X msg 1137 284 list 500 0.2 13 25 26 29 30 31 0 1 2 3 4 5 6 7 8;
#X msg 871 283 list 0 31 2 4 5 6;
#X msg 1003 283 list 0 31 2 4 5 6;
#X text 875 251 lightsOn;
#X text 1007 253 lightsOff;
#X text 1131 246 lightsFlash \, freq (in millis secs) \, duty cycle
(1 is always on) \, indices;
#X connect 0 0 9 0;
#X connect 0 1 10 0;
#X connect 1 0 0 0;
#X connect 2 0 0 3;
#X connect 3 0 0 4;
#X connect 4 0 0 6;
#X connect 5 0 0 5;
#X connect 15 0 0 1;
#X connect 16 0 0 2;
#X connect 20 0 0 7;
#X connect 22 0 4 0;
#X connect 23 0 22 0;
#X connect 24 0 0 8;
#X connect 25 0 16 0;
#X connect 26 0 15 0;
#X connect 28 0 29 0;
#X connect 30 0 29 1;
#X connect 33 0 34 0;
#X connect 36 0 0 9;
#X connect 37 0 0 12;
#X connect 38 0 0 10;
#X connect 39 0 0 11;
